<svg width="1280" height="720" viewBox="0 0 1280 720" fill="none" xmlns="http://www.w3.org/2000/svg">
  <rect width="1280" height="720" fill="#E8EEF7"/>
  <rect x="40" y="32" width="1200" height="656" rx="28" fill="#F8FAFC" stroke="#CBD5E1"/>
  <rect x="40" y="32" width="1200" height="72" rx="28" fill="#0F172A"/>
  <circle cx="92" cy="68" r="10" fill="#EF4444"/>
  <circle cx="124" cy="68" r="10" fill="#F59E0B"/>
  <circle cx="156" cy="68" r="10" fill="#10B981"/>
  <rect x="204" y="50" width="320" height="36" rx="18" fill="#1E293B"/>
  <text x="228" y="74" fill="#E2E8F0" font-family="Arial, sans-serif" font-size="20" font-weight="700">Cooldown Tracker Extension</text>
  <rect x="88" y="136" width="340" height="52" rx="20" fill="white" stroke="#CBD5E1"/>
  <text x="116" y="168" fill="#64748B" font-family="Arial, sans-serif" font-size="20">Buscar sitios...</text>
  <rect x="456" y="136" width="264" height="52" rx="20" fill="#E2E8F0"/>
  <rect x="462" y="142" width="82" height="40" rx="16" fill="white"/>
  <text x="486" y="168" fill="#0F172A" font-family="Arial, sans-serif" font-size="18" font-weight="700">Todos</text>
  <text x="572" y="168" fill="#475569" font-family="Arial, sans-serif" font-size="18">Cooldown</text>
  <text x="674" y="168" fill="#475569" font-family="Arial, sans-serif" font-size="18">Listos</text>
  <rect x="1076" y="136" width="116" height="52" rx="20" fill="#2563EB"/>
  <text x="1103" y="168" fill="white" font-family="Arial, sans-serif" font-size="18" font-weight="700">+ Nuevo</text>

  <rect x="88" y="228" width="520" height="198" rx="28" fill="white" stroke="#CBD5E1"/>
  <rect x="88" y="228" width="8" height="198" rx="4" fill="#F59E0B"/>
  <rect x="120" y="262" width="52" height="52" rx="16" fill="#DBEAFE"/>
  <text x="184" y="286" fill="#0F172A" font-family="Arial, sans-serif" font-size="26" font-weight="700">reddit.com</text>
  <rect x="344" y="262" width="108" height="30" rx="15" fill="#FEF3C7"/>
  <text x="368" y="282" fill="#92400E" font-family="Arial, sans-serif" font-size="16" font-weight="700">En cooldown</text>
  <text x="184" y="320" fill="#64748B" font-family="Arial, sans-serif" font-size="18">Bloqueo por dominio - 00:12:41</text>
  <rect x="184" y="344" width="356" height="12" rx="6" fill="#E2E8F0"/>
  <rect x="184" y="344" width="252" height="12" rx="6" fill="#3B82F6"/>
  <rect x="120" y="376" width="94" height="36" rx="18" fill="#DBEAFE"/>
  <text x="148" y="399" fill="#1D4ED8" font-family="Arial, sans-serif" font-size="16" font-weight="700">Abrir</text>
  <rect x="228" y="376" width="150" height="36" rx="18" fill="white" stroke="#CBD5E1"/>
  <text x="248" y="399" fill="#334155" font-family="Arial, sans-serif" font-size="16" font-weight="700">Marcar visitado</text>
  <rect x="392" y="376" width="102" height="36" rx="18" fill="white" stroke="#CBD5E1"/>
  <text x="416" y="399" fill="#334155" font-family="Arial, sans-serif" font-size="16" font-weight="700">Limpiar</text>

  <rect x="632" y="228" width="520" height="198" rx="28" fill="white" stroke="#CBD5E1"/>
  <rect x="632" y="228" width="8" height="198" rx="4" fill="#10B981"/>
  <rect x="664" y="262" width="52" height="52" rx="16" fill="#DCFCE7"/>
  <text x="728" y="286" fill="#0F172A" font-family="Arial, sans-serif" font-size="26" font-weight="700">youtube.com</text>
  <rect x="970" y="262" width="72" height="30" rx="15" fill="#DCFCE7"/>
  <text x="990" y="282" fill="#166534" font-family="Arial, sans-serif" font-size="16" font-weight="700">Listo</text>
  <text x="728" y="320" fill="#64748B" font-family="Arial, sans-serif" font-size="18">URL exacta - sin cooldown activo</text>
  <rect x="664" y="376" width="94" height="36" rx="18" fill="#DBEAFE"/>
  <text x="692" y="399" fill="#1D4ED8" font-family="Arial, sans-serif" font-size="16" font-weight="700">Abrir</text>
  <rect x="772" y="376" width="150" height="36" rx="18" fill="white" stroke="#CBD5E1"/>
  <text x="792" y="399" fill="#334155" font-family="Arial, sans-serif" font-size="16" font-weight="700">Marcar visitado</text>

  <rect x="88" y="458" width="1064" height="172" rx="28" fill="#0F172A"/>
  <text x="124" y="510" fill="white" font-family="Arial, sans-serif" font-size="28" font-weight="700">Flujo tipico</text>
  <text x="124" y="554" fill="#CBD5E1" font-family="Arial, sans-serif" font-size="22">1. Abres la extension</text>
  <text x="124" y="590" fill="#CBD5E1" font-family="Arial, sans-serif" font-size="22">2. Guardas sitios con dominio o URL exacta</text>
  <text x="124" y="626" fill="#CBD5E1" font-family="Arial, sans-serif" font-size="22">3. Inicias el cooldown al visitar el sitio</text>
  <text x="654" y="554" fill="#CBD5E1" font-family="Arial, sans-serif" font-size="22">4. Ves el progreso en tiempo real</text>
  <text x="654" y="590" fill="#CBD5E1" font-family="Arial, sans-serif" font-size="22">5. Recibes aviso cuando termina</text>
  <text x="654" y="626" fill="#CBD5E1" font-family="Arial, sans-serif" font-size="22">6. Exportas o importas tus datos</text>
</svg>
