<svg width="1280" height="720" viewBox="0 0 1280 720" fill="none" xmlns="http://www.w3.org/2000/svg">
  <rect width="1280" height="720" fill="#E2E8F0"/>
  <rect x="46" y="34" width="1188" height="652" rx="28" fill="#F8FAFC" stroke="#CBD5E1"/>
  <text x="84" y="92" fill="#0F172A" font-family="Arial, sans-serif" font-size="30" font-weight="700">Formulario, importacion y exportacion</text>

  <rect x="86" y="138" width="520" height="500" rx="28" fill="white" stroke="#CBD5E1"/>
  <text x="124" y="192" fill="#0F172A" font-family="Arial, sans-serif" font-size="28" font-weight="700">Anadir nuevo sitio</text>
  <rect x="124" y="224" width="444" height="52" rx="16" fill="white" stroke="#CBD5E1"/>
  <text x="146" y="257" fill="#64748B" font-family="Arial, sans-serif" font-size="18">https://www.reddit.com</text>
  <rect x="124" y="300" width="444" height="52" rx="16" fill="white" stroke="#CBD5E1"/>
  <text x="146" y="333" fill="#64748B" font-family="Arial, sans-serif" font-size="18">Reddit</text>
  <text x="124" y="390" fill="#334155" font-family="Arial, sans-serif" font-size="18" font-weight="700">Tiempo de cooldown</text>
  <rect x="124" y="408" width="112" height="46" rx="14" fill="white" stroke="#CBD5E1"/>
  <text x="156" y="438" fill="#0F172A" font-family="Arial, sans-serif" font-size="18" font-weight="700">30</text>
  <text x="250" y="438" fill="#64748B" font-family="Arial, sans-serif" font-size="18">minutos</text>
  <rect x="124" y="486" width="206" height="100" rx="20" fill="#DBEAFE" stroke="#93C5FD"/>
  <text x="152" y="524" fill="#1D4ED8" font-family="Arial, sans-serif" font-size="20" font-weight="700">Dominio completo</text>
  <text x="152" y="558" fill="#1E40AF" font-family="Arial, sans-serif" font-size="16">Bloquea todo el dominio</text>
  <rect x="362" y="486" width="206" height="100" rx="20" fill="white" stroke="#CBD5E1"/>
  <text x="400" y="524" fill="#334155" font-family="Arial, sans-serif" font-size="20" font-weight="700">URL exacta</text>
  <text x="392" y="558" fill="#64748B" font-family="Arial, sans-serif" font-size="16">Solo el enlace guardado</text>

  <rect x="658" y="138" width="496" height="220" rx="28" fill="white" stroke="#CBD5E1"/>
  <text x="694" y="192" fill="#0F172A" font-family="Arial, sans-serif" font-size="28" font-weight="700">Panel de datos</text>
  <rect x="694" y="226" width="190" height="44" rx="16" fill="#DBEAFE"/>
  <text x="734" y="254" fill="#1D4ED8" font-family="Arial, sans-serif" font-size="18" font-weight="700">Exportar JSON</text>
  <rect x="904" y="226" width="190" height="44" rx="16" fill="#DCFCE7"/>
  <text x="942" y="254" fill="#166534" font-family="Arial, sans-serif" font-size="18" font-weight="700">Importar JSON</text>
  <text x="694" y="310" fill="#64748B" font-family="Arial, sans-serif" font-size="18">El formato exportado incluye version, items, settings y fecha.</text>

  <rect x="658" y="388" width="496" height="250" rx="28" fill="#0F172A"/>
  <text x="694" y="440" fill="#93C5FD" font-family="Courier New, monospace" font-size="18">{</text>
  <text x="714" y="474" fill="#E2E8F0" font-family="Courier New, monospace" font-size="18">"version": 2,</text>
  <text x="714" y="508" fill="#E2E8F0" font-family="Courier New, monospace" font-size="18">"items": [...],</text>
  <text x="714" y="542" fill="#E2E8F0" font-family="Courier New, monospace" font-size="18">"settings": { "notificationsOn": true },</text>
  <text x="714" y="576" fill="#E2E8F0" font-family="Courier New, monospace" font-size="18">"exportedAt": "2026-03-09T12:00:00.000Z"</text>
  <text x="694" y="610" fill="#93C5FD" font-family="Courier New, monospace" font-size="18">}</text>
</svg>
